<svg width="242" height="152" viewBox="0 0 242 152" fill="none" xmlns="http://www.w3.org/2000/svg">
<path d="M173.974 119.006L171.914 119.002C171.306 119.001 170.813 119.492 170.812 120.1L170.759 150.16C170.758 150.767 171.25 151.261 171.857 151.262L173.917 151.265C174.525 151.267 175.018 150.775 175.019 150.167L175.072 120.107C175.073 119.5 174.581 119.007 173.974 119.006Z" fill="#5A5B58"/>
<path d="M13.5355 119.934C14.1489 119.934 14.7222 120.04 15.2555 120.254C15.4292 120.323 15.5865 120.428 15.7174 120.563C15.8483 120.697 15.9498 120.857 16.0155 121.034L27.0955 150.274C27.1361 150.382 27.1498 150.498 27.1355 150.612C27.1212 150.726 27.0792 150.836 27.0132 150.93C26.9473 151.025 26.8593 151.102 26.7569 151.155C26.6545 151.207 26.5408 151.235 26.4255 151.234H24.0455C23.7337 151.233 23.4297 151.138 23.1741 150.962C22.9185 150.785 22.7236 150.534 22.6155 150.244L20.0555 143.494C19.9759 143.285 19.8353 143.106 19.6518 142.977C19.4684 142.849 19.2503 142.778 19.0255 142.774C18.6055 142.767 16.7855 142.767 13.5655 142.774C10.3455 142.774 8.52554 142.777 8.10554 142.784C7.87961 142.789 7.66068 142.861 7.47707 142.992C7.29345 143.122 7.15357 143.304 7.07553 143.514L4.52554 150.264C4.41803 150.553 4.22467 150.802 3.97107 150.979C3.71747 151.156 3.41562 151.251 3.10554 151.254L0.725533 151.264C0.609445 151.266 0.494511 151.24 0.390793 151.188C0.287075 151.136 0.19774 151.059 0.130623 150.964C0.0635065 150.87 0.0206523 150.76 0.00581778 150.645C-0.00901675 150.529 0.00462291 150.412 0.0455364 150.304L11.0655 121.044C11.1301 120.866 11.2311 120.703 11.362 120.567C11.493 120.431 11.6509 120.324 11.8255 120.254C12.3522 120.04 12.9222 119.934 13.5355 119.934ZM8.47553 139.064C8.45808 139.115 8.45302 139.169 8.46078 139.223C8.46854 139.276 8.4889 139.327 8.52016 139.371C8.55143 139.415 8.59271 139.451 8.64059 139.475C8.68848 139.5 8.74158 139.513 8.79553 139.514L17.8855 139.554C17.9407 139.554 17.9951 139.541 18.044 139.515C18.093 139.49 18.135 139.453 18.1665 139.408C18.198 139.363 18.218 139.31 18.2248 139.256C18.2316 139.201 18.225 139.145 18.2055 139.094L13.7055 126.504C13.6829 126.437 13.6404 126.38 13.5837 126.339C13.5271 126.297 13.4591 126.275 13.3891 126.274C13.319 126.272 13.2503 126.293 13.1924 126.332C13.1345 126.372 13.0902 126.428 13.0655 126.494L8.47553 139.064Z" fill="#5A5B58"/>
<path d="M139.476 135.034C141.786 136.504 143.656 137.514 144.046 140.714C144.752 146.527 142.136 149.857 136.196 150.704C133.042 151.15 128.512 151.274 122.606 151.074C122.438 151.066 122.281 150.994 122.165 150.873C122.05 150.752 121.985 150.591 121.986 150.424V120.514C121.985 120.422 122.021 120.333 122.084 120.266C122.147 120.199 122.234 120.159 122.326 120.154C127.559 119.9 131.846 119.964 135.186 120.344C142.686 121.194 145.306 129.314 139.426 134.224C139.364 134.274 139.316 134.338 139.284 134.411C139.252 134.483 139.238 134.562 139.243 134.642C139.248 134.721 139.272 134.797 139.312 134.866C139.352 134.934 139.408 134.991 139.476 135.034ZM126.356 123.794L126.396 132.974C126.396 133.146 126.464 133.311 126.586 133.433C126.708 133.555 126.873 133.624 127.046 133.624L132.366 133.604C133.895 133.598 135.36 133.066 136.439 132.124C137.517 131.183 138.12 129.909 138.116 128.584V128.104C138.113 127.447 137.962 126.797 137.669 126.191C137.377 125.585 136.95 125.036 136.412 124.573C135.875 124.111 135.237 123.745 134.536 123.496C133.835 123.247 133.083 123.121 132.326 123.124L127.006 123.144C126.833 123.144 126.668 123.212 126.546 123.334C126.424 123.456 126.356 123.621 126.356 123.794ZM126.326 137.534L126.406 147.074C126.407 147.188 126.431 147.301 126.476 147.406C126.521 147.511 126.586 147.606 126.667 147.686C126.749 147.766 126.846 147.829 126.952 147.871C127.058 147.914 127.171 147.935 127.286 147.934L132.946 147.884C134.772 147.867 136.519 147.282 137.802 146.256C139.085 145.23 139.798 143.848 139.786 142.414V141.954C139.779 141.243 139.595 140.541 139.243 139.887C138.891 139.234 138.378 138.642 137.733 138.145C137.089 137.648 136.325 137.256 135.487 136.992C134.648 136.727 133.751 136.596 132.846 136.604L127.186 136.654C127.071 136.655 126.958 136.679 126.853 136.724C126.748 136.769 126.653 136.834 126.573 136.916C126.493 136.997 126.43 137.094 126.388 137.2C126.345 137.306 126.324 137.419 126.326 137.534Z" fill="#5A5B58"/>
<path d="M46.3955 135.134L45.4555 135.484C45.1623 135.595 44.8372 135.586 44.5507 135.458C44.2642 135.331 44.0396 135.096 43.9255 134.804C41.9455 129.684 34.7055 131.834 33.6255 136.784C32.2255 143.244 34.8355 150.034 42.5755 147.794C43.1288 147.634 44.1022 146.874 45.4955 145.514C45.6342 145.376 45.8052 145.275 45.9929 145.221C46.1806 145.166 46.3789 145.159 46.5699 145.201C46.7608 145.243 46.9382 145.332 47.0859 145.46C47.2337 145.588 47.347 145.751 47.4155 145.934L47.6855 146.624C47.7762 146.863 47.7999 147.123 47.7541 147.377C47.7083 147.63 47.5948 147.868 47.4255 148.064C43.0155 153.124 34.3155 152.734 30.6555 146.844C28.1455 142.804 28.2255 136.154 31.5955 132.344C34.7088 128.837 38.8288 127.944 43.9555 129.664C45.3755 130.144 46.4988 131.1 47.3255 132.534C47.4565 132.76 47.5365 133.013 47.5599 133.274C47.5834 133.535 47.5497 133.798 47.4613 134.045C47.3729 134.292 47.2319 134.517 47.0479 134.705C46.8638 134.893 46.6413 135.04 46.3955 135.134Z" fill="#4A4E4A"/>
<path d="M69.2655 146.874V147.524C69.2653 147.917 69.1629 148.304 68.9683 148.645C68.7737 148.987 68.4936 149.273 68.1555 149.474C63.6755 152.114 59.5189 152.43 55.6855 150.424C47.5555 146.154 48.8155 130.764 58.4755 129.014C65.8755 127.664 70.5255 131.834 69.7755 139.794C69.7481 140.082 69.6149 140.349 69.4022 140.543C69.1894 140.738 68.9124 140.845 68.6255 140.844H55.6355C55.5145 140.843 55.3949 140.87 55.2851 140.92C55.1753 140.971 55.0779 141.045 54.9998 141.138C54.9217 141.23 54.8647 141.339 54.8329 141.455C54.801 141.572 54.7951 141.694 54.8155 141.814C55.6022 146.374 58.2422 148.567 62.7355 148.394C63.7089 148.36 65.4322 147.597 67.9055 146.104C68.0419 146.023 68.1973 145.979 68.356 145.977C68.5146 145.976 68.6709 146.016 68.809 146.094C68.947 146.172 69.062 146.286 69.1422 146.422C69.2224 146.559 69.2649 146.715 69.2655 146.874ZM56.3455 138.034L64.9255 138.054C65.0433 138.055 65.1601 138.033 65.2692 137.989C65.3783 137.945 65.4776 137.879 65.5613 137.797C65.645 137.714 65.7115 137.615 65.7569 137.507C65.8022 137.398 65.8255 137.281 65.8255 137.164V136.784C65.8269 136.094 65.6947 135.411 65.4366 134.774C65.1785 134.136 64.7996 133.557 64.3213 133.068C63.8431 132.58 63.275 132.192 62.6495 131.927C62.0239 131.662 61.3532 131.525 60.6755 131.524H60.6355C59.267 131.521 57.9535 132.072 56.984 133.054C56.0144 134.037 55.4682 135.371 55.4655 136.764V137.144C55.4655 137.378 55.5579 137.603 55.7227 137.77C55.8874 137.936 56.1112 138.031 56.3455 138.034Z" fill="#4A4E4A"/>
<path d="M86.8356 134.874C86.4306 135.03 85.9814 135.028 85.5762 134.869C85.1711 134.71 84.8391 134.405 84.6456 134.014C83.6322 131.96 81.8289 131.287 79.2355 131.994C75.6955 132.964 76.8955 136.414 79.6255 137.414C83.7355 138.924 88.4255 139.794 88.8755 143.754C90.3155 156.414 69.5255 151.124 72.7755 146.004C72.9548 145.72 73.2021 145.482 73.493 145.315C73.7839 145.147 74.1084 145.055 74.4344 145.048C74.7605 145.041 75.0769 145.119 75.3524 145.274C75.6279 145.43 75.8531 145.657 76.0056 145.934C77.7156 149.064 82.7756 149.884 84.6756 146.614C84.8345 146.339 84.9366 146.036 84.9758 145.72C85.0151 145.405 84.9907 145.085 84.9041 144.778C84.8176 144.47 84.6706 144.183 84.4716 143.932C84.2727 143.68 84.0259 143.47 83.7455 143.314C82.2655 142.48 80.1622 141.657 77.4355 140.844C74.8455 140.074 72.8755 138.174 72.8555 135.344C72.8355 127.824 84.7955 126.734 88.2155 132.114C88.3547 132.333 88.4435 132.58 88.4754 132.837C88.5073 133.094 88.4816 133.355 88.4002 133.6C88.3187 133.845 88.1835 134.069 88.0045 134.255C87.8255 134.441 87.6072 134.584 87.3656 134.674L86.8356 134.874Z" fill="#4A4E4A"/>
<path d="M106.176 134.864C105.768 135.016 105.318 135.011 104.913 134.848C104.508 134.685 104.177 134.377 103.986 133.984C102.986 131.91 101.182 131.217 98.5755 131.904C95.0055 132.844 96.1755 136.324 98.9155 137.354C103.026 138.904 107.726 139.824 108.146 143.804C109.466 156.534 88.6355 151.024 91.9555 145.914C92.1386 145.632 92.389 145.397 92.6821 145.232C92.9752 145.068 93.301 144.979 93.6276 144.975C93.9542 144.971 94.2704 145.052 94.5452 145.209C94.8201 145.367 95.0442 145.596 95.1955 145.874C96.8855 149.034 101.956 149.904 103.896 146.634C104.057 146.36 104.163 146.056 104.205 145.741C104.247 145.425 104.226 145.103 104.142 144.794C104.059 144.485 103.914 144.195 103.717 143.941C103.52 143.687 103.275 143.474 102.996 143.314C101.516 142.46 99.4089 141.614 96.6755 140.774C94.0855 139.974 92.1255 138.044 92.1355 135.204C92.1855 127.654 104.206 126.674 107.586 132.114C107.722 132.334 107.809 132.582 107.838 132.84C107.868 133.098 107.84 133.359 107.757 133.604C107.674 133.849 107.537 134.072 107.357 134.257C107.177 134.442 106.958 134.584 106.716 134.674L106.176 134.864Z" fill="#5A5B58"/>
<path d="M115.226 128.922L113.106 128.926C112.504 128.927 112.017 129.415 112.018 130.017L112.053 150.217C112.054 150.819 112.543 151.307 113.145 151.306L115.265 151.302C115.867 151.301 116.354 150.812 116.353 150.21L116.318 130.01C116.317 129.408 115.828 128.921 115.226 128.922Z" fill="#5A5B58"/>
<path d="M166.306 146.884V147.534C166.304 147.928 166.2 148.315 166.004 148.657C165.808 148.999 165.525 149.284 165.186 149.484C160.686 152.097 156.522 152.39 152.696 150.364C144.586 146.044 145.936 130.654 155.616 128.954C163.026 127.644 167.656 131.844 166.856 139.804C166.828 140.09 166.695 140.356 166.483 140.55C166.27 140.744 165.993 140.852 165.706 140.854L152.706 140.774C152.584 140.772 152.463 140.797 152.352 140.847C152.241 140.897 152.142 140.971 152.063 141.064C151.984 141.157 151.926 141.265 151.893 141.383C151.861 141.5 151.855 141.624 151.876 141.744C152.636 146.31 155.266 148.52 159.766 148.374C160.739 148.347 162.469 147.594 164.956 146.114C165.092 146.035 165.246 145.993 165.403 145.993C165.56 145.993 165.715 146.033 165.851 146.111C165.988 146.189 166.102 146.301 166.181 146.437C166.261 146.572 166.304 146.726 166.306 146.884ZM153.196 138.094L161.936 137.994C162.048 137.992 162.16 137.969 162.264 137.924C162.368 137.88 162.462 137.816 162.541 137.735C162.62 137.654 162.682 137.558 162.724 137.454C162.766 137.349 162.787 137.237 162.786 137.124L162.776 136.744C162.768 136.063 162.625 135.391 162.356 134.766C162.087 134.14 161.697 133.574 161.207 133.098C160.718 132.623 160.139 132.248 159.504 131.995C158.869 131.742 158.19 131.616 157.506 131.624H157.466C156.781 131.632 156.105 131.773 155.476 132.041C154.847 132.309 154.277 132.697 153.799 133.183C153.321 133.67 152.944 134.245 152.689 134.877C152.435 135.508 152.308 136.183 152.316 136.864L152.326 137.244C152.327 137.357 152.35 137.468 152.395 137.572C152.439 137.676 152.504 137.77 152.584 137.849C152.665 137.928 152.761 137.99 152.866 138.032C152.97 138.074 153.083 138.095 153.196 138.094Z" fill="#5A5B58"/>
<path d="M197.806 146.824V147.464C197.807 147.854 197.706 148.238 197.513 148.578C197.32 148.918 197.042 149.203 196.706 149.404C192.246 152.03 188.112 152.344 184.306 150.344C176.226 146.094 177.486 130.794 187.086 129.054C194.446 127.714 199.066 131.864 198.316 139.784C198.288 140.068 198.157 140.331 197.946 140.523C197.735 140.715 197.461 140.823 197.176 140.824L184.256 140.814C184.135 140.815 184.017 140.842 183.908 140.894C183.8 140.945 183.704 141.019 183.627 141.112C183.55 141.204 183.493 141.312 183.462 141.428C183.431 141.544 183.425 141.665 183.446 141.784C184.226 146.317 186.849 148.5 191.316 148.334C192.282 148.3 193.996 147.54 196.456 146.054C196.591 145.972 196.746 145.928 196.905 145.926C197.063 145.924 197.219 145.964 197.357 146.042C197.494 146.121 197.608 146.235 197.687 146.372C197.766 146.509 197.807 146.665 197.806 146.824ZM184.286 138.174L193.926 138.114C194.078 138.111 194.223 138.049 194.329 137.94C194.436 137.832 194.496 137.686 194.496 137.534V137.034C194.487 135.575 193.911 134.179 192.893 133.154C191.874 132.128 190.498 131.556 189.066 131.564C188.356 131.568 187.655 131.714 187.001 131.994C186.348 132.274 185.754 132.682 185.256 133.196C184.757 133.709 184.363 134.318 184.095 134.987C183.827 135.655 183.692 136.371 183.696 137.094V137.594C183.696 137.671 183.711 137.747 183.741 137.818C183.77 137.889 183.814 137.953 183.869 138.007C183.924 138.061 183.989 138.104 184.061 138.132C184.132 138.161 184.209 138.175 184.286 138.174Z" fill="#4A4E4A"/>
<path d="M234.446 148.974C231.839 151.187 229.099 152.114 226.226 151.754C221.546 151.174 219.116 146.844 221.396 142.724C223.736 138.494 229.076 138.294 233.506 138.654C233.797 138.678 234.09 138.628 234.357 138.508C234.624 138.389 234.856 138.203 235.031 137.97C235.207 137.736 235.321 137.461 235.362 137.172C235.403 136.882 235.37 136.587 235.266 136.314L234.246 133.634C234.076 133.184 233.79 132.788 233.418 132.484C233.046 132.18 232.6 131.98 232.126 131.904C228.599 131.337 226.362 132.104 225.416 134.204C225.282 134.497 225.082 134.74 224.816 134.934C224.469 135.194 224.189 135.327 223.976 135.334C223.713 135.343 223.451 135.296 223.208 135.195C222.966 135.094 222.749 134.942 222.574 134.75C222.398 134.558 222.268 134.331 222.192 134.084C222.116 133.838 222.097 133.578 222.136 133.324C222.302 132.23 222.976 131.334 224.156 130.634C229.516 127.454 238.806 127.584 239.016 135.994C239.166 141.934 238.546 147.774 240.946 149.194C241.12 149.297 241.261 149.447 241.353 149.627C241.445 149.807 241.484 150.011 241.465 150.214C241.446 150.417 241.371 150.612 241.247 150.776C241.123 150.941 240.957 151.068 240.766 151.144C239.066 151.834 236.796 151.784 236.056 149.914C235.876 149.46 235.699 149.154 235.526 148.994C235.38 148.858 235.189 148.781 234.989 148.777C234.79 148.774 234.596 148.844 234.446 148.974ZM235.02 142.93C234.74 142.104 233.951 141.487 232.826 141.217C231.701 140.946 230.332 141.044 229.021 141.487C227.709 141.931 226.563 142.685 225.833 143.584C225.104 144.482 224.851 145.451 225.131 146.277C225.411 147.104 226.2 147.72 227.325 147.991C228.45 148.261 229.819 148.164 231.13 147.72C232.442 147.276 233.588 146.522 234.318 145.624C235.047 144.726 235.3 143.757 235.02 142.93Z" fill="#4A4E4A"/>
<path d="M206.336 147.884C206.323 147.904 206.316 147.927 206.315 147.95C206.313 147.974 206.318 147.997 206.328 148.018C206.339 148.039 206.354 148.056 206.373 148.067C206.392 148.079 206.414 148.084 206.436 148.084H217.286C217.694 148.084 218.086 148.246 218.374 148.535C218.663 148.824 218.826 149.215 218.826 149.624V149.964C218.826 150.293 218.695 150.608 218.462 150.84C218.23 151.073 217.914 151.204 217.586 151.204H201.636C201.481 151.203 201.329 151.168 201.19 151.101C201.052 151.033 200.93 150.935 200.835 150.814C200.74 150.693 200.673 150.551 200.64 150.401C200.607 150.25 200.609 150.094 200.646 149.944C200.979 148.61 201.696 147.224 202.796 145.784C204.829 143.124 208.026 138.88 212.386 133.054C212.445 132.973 212.482 132.878 212.491 132.778C212.501 132.678 212.483 132.578 212.439 132.489C212.395 132.4 212.328 132.325 212.244 132.273C212.161 132.22 212.064 132.193 211.966 132.194H202.236C201.928 132.194 201.633 132.071 201.415 131.854C201.198 131.636 201.076 131.341 201.076 131.034V130.324C201.076 130.045 201.185 129.778 201.38 129.581C201.575 129.384 201.84 129.274 202.116 129.274H217.076C217.242 129.273 217.407 129.307 217.561 129.373C217.714 129.438 217.852 129.534 217.967 129.655C218.082 129.776 218.172 129.918 218.23 130.075C218.288 130.231 218.314 130.397 218.306 130.564C218.266 131.437 217.806 132.474 216.926 133.674C213.786 137.967 210.256 142.704 206.336 147.884Z" fill="#5A5B58"/>
<path d="M123.113 63.0014C122.906 62.9681 122.686 62.8181 122.453 62.5514C119.68 59.3781 116.42 56.0781 112.673 52.6514C107.026 47.4848 103.643 41.4414 102.523 34.5214C99.6428 16.7014 116.273 0.901444 133.203 0.00144448C133.406 -0.0086035 133.609 0.0339024 133.792 0.124816C133.974 0.215729 134.13 0.351944 134.244 0.520169C134.358 0.688394 134.426 0.882884 134.441 1.08466C134.457 1.28644 134.42 1.48861 134.333 1.67144C131.873 6.93144 130.133 11.0414 132.973 16.8414C135.066 21.1081 136.173 23.3981 136.293 23.7114C139.186 31.0448 138.663 37.8048 134.723 43.9914C134.163 44.8648 132.686 46.5248 130.293 48.9714C126.726 52.6048 124.78 56.8881 124.453 61.8214C124.442 61.9948 124.397 62.1644 124.323 62.3195C124.248 62.4746 124.144 62.6119 124.018 62.7227C123.893 62.8335 123.747 62.9155 123.591 62.9635C123.435 63.0114 123.273 63.0244 123.113 63.0014Z" fill="#C2D1D6"/>
<path d="M81.6429 60.8415C81.5946 60.8888 81.5366 60.9252 81.473 60.9482C81.4093 60.9711 81.3415 60.98 81.2741 60.9743C81.2067 60.9686 81.1413 60.9484 81.0824 60.9152C81.0235 60.8819 80.9725 60.8363 80.9328 60.7815C75.4028 53.1415 71.7129 43.1915 72.3329 33.6715C72.3666 33.1728 72.5676 32.7001 72.9033 32.3299C73.239 31.9597 73.6899 31.7136 74.1828 31.6315C77.0528 31.1515 79.0528 34.9215 79.5228 37.3115C81.3928 46.6915 81.7229 50.2215 84.5829 57.0715C84.6544 57.2438 84.6735 57.4334 84.6379 57.6166C84.6024 57.7997 84.5136 57.9684 84.3828 58.1015L81.6429 60.8415Z" fill="#D6A496"/>
<path d="M95.4428 60.1614L87.6128 57.0314C87.4557 56.9686 87.3138 56.8737 87.1966 56.753C87.0793 56.6324 86.9895 56.4887 86.9328 56.3314C84.4928 49.6514 83.4495 42.9214 83.8028 36.1414C83.8199 35.7973 83.9564 35.4693 84.1895 35.2125C84.4226 34.9557 84.7381 34.7859 85.0828 34.7314C86.8828 34.4581 88.2228 35.2814 89.1028 37.2014C89.8428 38.8281 90.8428 42.9781 92.1028 49.6514C92.3362 50.8914 93.5362 54.3081 95.7028 59.9014C95.7174 59.9377 95.7209 59.9776 95.7131 60.0159C95.7052 60.0543 95.6862 60.0895 95.6586 60.1171C95.6309 60.1448 95.5957 60.1638 95.5573 60.1716C95.519 60.1795 95.4792 60.1759 95.4428 60.1614Z" fill="#D6A496"/>
<path d="M128.303 86.5314C129.803 90.2114 130.59 94.2714 130.663 98.7114C124.716 100.025 118.246 99.7014 111.253 97.7414C99.1795 94.3548 89.2529 88.4948 81.4729 80.1614C73.1729 71.2814 68.3128 59.4814 64.1028 46.6514C63.4695 44.7181 63.1028 42.8081 63.0028 40.9214C62.9875 40.6428 63.0346 40.3643 63.1409 40.1063C63.2471 39.8483 63.4098 39.6173 63.6169 39.4303C63.824 39.2433 64.0704 39.1051 64.3379 39.0257C64.6054 38.9463 64.8873 38.9277 65.1628 38.9714C67.7295 39.3848 69.5195 40.8981 70.5328 43.5114C74.6128 54.0414 79.1228 64.8814 88.5428 70.6914C92.6095 73.2114 96.7928 75.7881 101.093 78.4214C101.142 78.4511 101.198 78.4667 101.255 78.4665C101.312 78.4663 101.368 78.4504 101.417 78.4204C101.465 78.3904 101.505 78.3475 101.53 78.2965C101.556 78.2455 101.567 78.1884 101.563 78.1314C101.523 77.6114 101.286 77.1881 100.853 76.8614C97.8862 74.6148 94.2662 72.1781 89.9928 69.5514C87.9928 68.3214 81.9028 64.2714 84.0528 61.0814C85.9128 58.3214 89.0528 59.5714 91.8228 60.9614C96.9128 63.5114 100.613 65.9714 105.913 68.3914C115.383 72.7314 123.163 76.9214 128.303 86.5314Z" fill="#D6A496"/>
<path d="M130.663 98.7114C130.589 94.2714 129.803 90.2114 128.303 86.5314C135.769 79.2581 142.496 71.3881 148.483 62.9214C148.52 62.8626 148.538 62.7932 148.532 62.7236C148.527 62.654 148.499 62.5881 148.452 62.536C148.406 62.4839 148.344 62.4484 148.275 62.435C148.207 62.4215 148.136 62.4308 148.073 62.4614C145.439 63.9148 141.599 66.3548 136.553 69.7814C132.383 72.6214 127.353 75.0514 122.693 73.6214C122.191 73.4655 121.758 73.161 121.473 72.7641C121.188 72.3672 121.071 71.9046 121.143 71.4614C121.533 69.1714 124.553 67.0714 127.433 64.5914C135.373 57.7614 140.513 48.0514 150.563 43.7614C160.693 39.4314 175.393 42.1714 182.993 50.5214C183.229 50.7815 183.366 51.1161 183.381 51.4669C183.395 51.8178 183.286 52.1626 183.073 52.4414C175.819 61.8814 167.886 71.2248 159.273 80.4714C153.459 86.7114 147.146 91.6614 140.333 95.3214C137.966 96.5948 134.743 97.7248 130.663 98.7114Z" fill="#E0CEC5"/>
<path d="M108.073 66.3914C108.121 66.4672 108.143 66.557 108.134 66.6464C108.125 66.7358 108.086 66.8196 108.024 66.8843C107.961 66.949 107.879 66.9908 107.79 67.003C107.701 67.0152 107.61 66.997 107.533 66.9514L100.243 62.7514C99.8447 62.5232 99.5215 62.1825 99.3128 61.7714C97.6928 58.6514 93.6828 48.6714 96.5928 46.5714C96.9347 46.326 97.3585 46.2019 97.8061 46.2162C98.2538 46.2305 98.7032 46.3826 99.0928 46.6514C100.653 47.7414 101.593 49.7714 101.983 51.6814C103.036 56.8014 105.066 61.7048 108.073 66.3914Z" fill="#D6A496"/>
</svg>
